<svg xmlns="http://www.w3.org/2000/svg" viewBox="0 0 32 32">
  <rect width="32" height="32" fill="#0a0a1a"/>
  <rect x="2" y="2" width="28" height="2" fill="#ff2d78"/>
  <rect x="2" y="28" width="28" height="2" fill="#ff2d78"/>
  <rect x="2" y="2" width="2" height="28" fill="#ff2d78"/>
  <rect x="28" y="2" width="2" height="28" fill="#ff2d78"/>
  <rect x="8" y="0" width="16" height="2" fill="#ffe600"/>
  <rect x="4" y="2" width="4" height="2" fill="#ffe600"/>
  <rect x="24" y="2" width="4" height="2" fill="#ffe600"/>
  <rect x="4" y="4" width="2" height="16" fill="#ffe600"/>
  <rect x="26" y="4" width="2" height="16" fill="#ffe600"/>
  <rect x="4" y="20" width="4" height="2" fill="#ffe600"/>
  <rect x="24" y="20" width="4" height="2" fill="#ffe600"/>
  <rect x="8" y="22" width="16" height="2" fill="#ffe600"/>
  <rect x="14" y="4" width="4" height="18" fill="#ffe600"/>
  <rect x="8" y="6" width="10" height="4" fill="#cc9900"/>
  <rect x="8" y="12" width="10" height="4" fill="#cc9900"/>
  <rect x="8" y="6" width="4" height="10" fill="#cc9900"/>
  <rect x="14" y="10" width="4" height="10" fill="#cc9900"/>
</svg>